<?xml version="1.0" encoding="UTF-8" standalone="no"?>
<!-- Created with Inkscape (http://www.inkscape.org/) -->

<svg
   width="900"
   height="48"
   viewBox="0 0 900 48"
   version="1.1"
   id="svg1"
   xml:space="preserve"
   inkscape:version="1.4.2 (ebf0e94, 2025-05-08)"
   sodipodi:docname="rocket_line2.svg"
   inkscape:export-filename="rocket_line.png"
   inkscape:export-xdpi="96"
   inkscape:export-ydpi="96"
   xmlns:inkscape="http://www.inkscape.org/namespaces/inkscape"
   xmlns:sodipodi="http://sodipodi.sourceforge.net/DTD/sodipodi-0.dtd"
   xmlns="http://www.w3.org/2000/svg"
   xmlns:svg="http://www.w3.org/2000/svg"><sodipodi:namedview
     id="namedview1"
     pagecolor="#ffffff"
     bordercolor="#000000"
     borderopacity="0.25"
     inkscape:showpageshadow="2"
     inkscape:pageopacity="0.0"
     inkscape:pagecheckerboard="0"
     inkscape:deskcolor="#d1d1d1"
     inkscape:document-units="px"
     showguides="false"
     inkscape:zoom="1.3853252"
     inkscape:cx="291.62829"
     inkscape:cy="-99.615603"
     inkscape:window-width="1898"
     inkscape:window-height="1010"
     inkscape:window-x="7"
     inkscape:window-y="31"
     inkscape:window-maximized="1"
     inkscape:current-layer="layer4" /><defs
     id="defs1" /><g
     inkscape:groupmode="layer"
     id="layer4"
     inkscape:label="lines"
     style="fill:#e24d6a"><path
       id="path22"
       style="fill:#e24d6a;stroke:none;stroke-width:1.637;stroke-linecap:butt;stroke-linejoin:round;stroke-miterlimit:1.5;stroke-dasharray:none;paint-order:markers fill stroke"
       inkscape:label="red"
       d="M 24.521484 18.271484 L 24.521484 19.908203 L 857.10547 19.908203 L 857.10547 18.271484 L 24.521484 18.271484 z " /><path
       id="text22"
       style="font-size:74.6667px;font-family:'FiraCode Nerd Font';-inkscape-font-specification:'FiraCode Nerd Font, Normal';text-align:center;letter-spacing:0px;text-anchor:middle;display:inline;fill:#e24d6a;stroke-width:0.267855;stroke-linejoin:round;stroke-miterlimit:1.5;paint-order:markers fill stroke"
       inkscape:label="text22"
       d="m 18.857602,17.60191 c -0.009,9.12e-4 -0.01912,0.0012 -0.02734,0.0039 -0.01232,0.0041 -0.02264,0.01128 -0.0332,0.01953 l -0.002,0.0039 -0.0039,0.002 c -0.0016,0.0018 -0.0024,0.0024 -0.0039,0.0039 -0.0034,0.0033 -0.0067,0.0062 -0.0098,0.0098 -0.0062,0.0073 -0.01289,0.01612 -0.01758,0.02344 l -0.002,0.002 v 0.002 0.002 0.002 h -0.002 v 0.002 c -9.78e-4,0.0019 -0.0046,0.0077 -0.0059,0.0098 l -0.002,0.002 c -0.0031,0.0073 -0.0044,0.01417 -0.0059,0.02148 -3.92e-4,0.0019 -0.0015,0.0062 -0.002,0.0078 v 0.002 c -3.91e-4,0.0037 0,0.008 0,0.01172 v 1.628907 c 0,0.0047 -4.56e-4,0.01103 0,0.01562 4.58e-4,0.0046 9.06e-4,0.0072 0.002,0.01172 0.0019,0.0088 0.0042,0.01899 0.0078,0.02734 l 0.002,0.002 c 0.0018,0.0032 0.0043,0.0068 0.0059,0.0098 0.0068,0.0122 0.01444,0.02224 0.02539,0.0332 0.0073,0.0062 0.01612,0.01289 0.02344,0.01758 l 0.002,0.002 0.002,0.002 h 0.0039 v 0.0039 h 0.002 l 0.002,0.002 h 0.002 l 0.002,0.002 h 0.002 0.002 0.002 c 0.0073,0.0032 0.01416,0.0062 0.02148,0.0078 0.0073,0.0016 0.01614,0.002 0.02344,0.002 h 1.626953 0.0039 c 0.0025,-3.85e-4 0.0092,-0.0015 0.01172,-0.002 h 0.002 c 9.88e-4,4.9e-5 0.0068,-8.6e-5 0.0078,0 h 0.002 c 0.01253,-0.0028 0.02498,-0.0068 0.03516,-0.01367 0.0068,-0.0046 0.01378,-0.01115 0.01953,-0.01758 h 0.002 v -0.002 l 0.002,-0.002 v -0.002 c 4.49e-4,-8.3e-4 0.0013,-0.003 0.002,-0.0039 0.0062,-0.0073 0.01289,-0.01391 0.01758,-0.02148 0.0047,-0.0076 0.0085,-0.01755 0.01172,-0.02539 v -0.002 l 0.002,-0.002 c 1.33e-4,-9.88e-4 -1.61e-4,-0.0067 0,-0.0078 0.0024,-0.008 0.0052,-0.01716 0.0059,-0.02539 3.92e-4,-0.0041 0,-0.0075 0,-0.01172 v -1.628907 c 0,-0.0095 -8e-6,-0.01677 -0.002,-0.02539 v -0.002 l -0.002,-0.002 c -4.34e-4,-9.68e-4 -0.0016,-0.0031 -0.002,-0.0039 v -0.002 -0.002 c -0.0014,-0.0041 -0.0021,-0.0097 -0.0039,-0.01367 l -0.002,-0.002 c -0.0019,-0.003 -0.0041,-0.007 -0.0059,-0.0098 v -0.002 l -0.002,-0.002 c -6.88e-4,-0.002 -0.0014,-0.0048 -0.002,-0.0059 l -0.0039,-0.002 v -0.002 l -0.002,-0.002 c -6.75e-4,-0.0015 -0.0015,-0.0031 -0.002,-0.0039 l -0.002,-0.002 -0.0039,-0.0039 -0.002,-0.002 h -0.002 l -0.002,-0.002 h -0.002 l -0.002,-0.002 c -0.0062,-0.0062 -0.013,-0.01289 -0.01953,-0.01758 h -0.002 v -0.002 h -0.002 -0.002 l -0.0039,-0.0039 c -0.01331,-0.0078 -0.02666,-0.0121 -0.04102,-0.01367 h -0.002 -0.002 c -0.0015,4.9e-5 -0.0041,0 -0.0059,0 h -1.628906 c -0.0047,0 -0.0092,-4.58e-4 -0.01367,0 z m 2.4375,0.05664 -0.002,0.002 h -0.002 c -0.0062,0.0024 -0.01326,0.007 -0.01953,0.01172 -0.0042,0.0031 -0.0095,0.0057 -0.01367,0.0098 -0.0024,0.0032 -0.0074,0.0086 -0.0098,0.01172 v 0.0039 h -0.002 v 0.002 c -4.13e-4,0.0021 -0.0016,0.0058 -0.002,0.0078 v 0.002 0.002 h -0.0039 v 0.002 0.0039 0.002 0.002 0.0039 h -0.002 v 0.002 0.002 c 2.5e-5,0.0013 0,0.005 0,0.0059 v 1.626954 c 0,0.0013 3.3e-5,0.0066 0,0.0078 3.92e-4,0.0039 0.0011,0.01197 0.002,0.01563 v 0.002 l 0.0039,0.002 h 0.002 v 0.002 0.0039 0.002 h 0.002 v 0.002 c 0.002,0.0035 0.0071,0.01171 0.0098,0.01563 l 0.0039,0.002 0.002,0.002 c 0.0021,0.0016 0.0078,0.0061 0.0098,0.0078 l 0.002,0.002 c 0.0058,0.0035 0.01226,0.0059 0.01758,0.0078 h 0.002 0.002 c 0.0018,3.91e-4 0.0062,0.0014 0.0078,0.002 h 0.002 1.636718 c 0.0013,0 0.0066,1.66e-4 0.0078,0 h 0.002 0.002 v -0.002 h 0.002 c 0.0051,-8.81e-4 0.01301,-0.0025 0.01758,-0.0039 h 0.002 0.0039 l 0.002,-0.0039 h 0.002 v -0.002 l 0.002,-0.002 0.0039,-0.0039 0.002,-0.002 0.002,-0.002 v -0.002 h 0.002 v -0.002 l 0.002,-0.002 v -0.002 c 0.001,-0.002 0.0031,-0.0058 0.0039,-0.0078 v -0.002 -0.002 c 0.0026,-0.0095 0.0059,-0.02068 0.0059,-0.0332 v -1.628907 c 0,-0.0031 -8.2e-5,-0.0088 0,-0.01172 -1.5e-5,-7e-4 -2.4e-5,-0.003 0,-0.0039 v -0.002 -0.002 -0.002 c -0.0015,-0.0046 -0.005,-0.01015 -0.0059,-0.01367 v -0.002 h -0.002 v -0.002 l -0.002,-0.002 v -0.002 -0.002 -0.002 -0.002 h -0.0039 v -0.002 c -0.0035,-0.0052 -0.009,-0.01197 -0.01367,-0.01563 l -0.0039,-0.002 h -0.002 v -0.002 h -0.002 -0.002 c -0.0078,-0.0031 -0.01689,-0.0059 -0.02734,-0.0059 h -1.634765 -0.0039 -0.002 -0.002 -0.002 -0.002 z m 0.08789,0.150391 h 1.484375 v 1.484375 h -1.484375 z m -2.378906,0.05469 h 1.357422 v 1.367187 h -1.357422 z" /><path
       id="path2"
       style="baseline-shift:baseline;display:inline;overflow:visible;vector-effect:none;fill:#f78c4d;stroke-linejoin:round;stroke-miterlimit:1.5;paint-order:markers fill stroke;enable-background:accumulate;stop-color:#000000;stop-opacity:1;opacity:1"
       inkscape:label="orange"
       d="M 24.521484 19.908203 L 24.521484 21.544922 L 857.10547 21.544922 L 857.10547 19.908203 L 24.521484 19.908203 z " /><path
       id="path23"
       style="font-size:74.6667px;font-family:'FiraCode Nerd Font';-inkscape-font-specification:'FiraCode Nerd Font, Normal';text-align:center;letter-spacing:0px;text-anchor:middle;display:inline;fill:#f78c4d;stroke-width:0.271221;stroke-linejoin:round;stroke-miterlimit:1.5;paint-order:markers fill stroke"
       d="M 17.980469 19.822266 C 17.965099 19.825866 17.952413 19.836659 17.939453 19.849609 C 17.926763 19.866519 17.919922 19.881528 17.919922 19.898438 L 17.919922 21.550781 C 17.919922 21.571941 17.928403 21.588569 17.945312 21.605469 C 17.962222 21.618159 17.979164 21.626953 17.996094 21.626953 L 19.636719 21.626953 C 19.657879 21.626953 19.676773 21.616469 19.689453 21.599609 C 19.706363 21.582699 19.714844 21.567691 19.714844 21.550781 L 19.714844 19.898438 C 19.714844 19.877278 19.706363 19.862289 19.689453 19.849609 C 19.672543 19.832699 19.653649 19.822266 19.636719 19.822266 L 17.996094 19.822266 C 17.994894 19.822266 17.991434 19.822305 17.990234 19.822266 L 17.988281 19.822266 L 17.986328 19.822266 L 17.984375 19.822266 L 17.980469 19.822266 z M 22.898438 19.898438 L 22.898438 21.550781 L 24.542969 21.550781 L 24.542969 19.898438 L 22.898438 19.898438 z M 18.064453 19.970703 L 19.560547 19.970703 L 19.560547 21.472656 L 18.064453 21.472656 L 18.064453 19.970703 z " /><path
       id="path3"
       style="baseline-shift:baseline;display:inline;overflow:visible;vector-effect:none;fill:#f4c15d;stroke-linejoin:round;stroke-miterlimit:1.5;paint-order:markers fill stroke;enable-background:accumulate;stop-color:#000000;stop-opacity:1;opacity:1"
       inkscape:label="yellow"
       d="M 24.521484 21.544922 L 24.521484 23.181641 L 857.10547 23.181641 L 857.10547 21.544922 L 24.521484 21.544922 z " /><path
       id="path24"
       style="font-size:74.6667px;font-family:'FiraCode Nerd Font';-inkscape-font-specification:'FiraCode Nerd Font, Normal';text-align:center;letter-spacing:0px;text-anchor:middle;display:inline;fill:#f4c15d;stroke-width:0.268611;stroke-linejoin:round;stroke-miterlimit:1.5;paint-order:markers fill stroke"
       d="M 15.769531 21.369141 C 15.726931 21.373241 15.687299 21.392791 15.654297 21.425781 C 15.620787 21.463491 15.605469 21.503042 15.605469 21.544922 L 15.605469 23.177734 C 15.605469 23.227984 15.624409 23.274803 15.662109 23.3125 C 15.704009 23.34601 15.745232 23.361328 15.787109 23.361328 L 17.414062 23.361328 C 17.464312 23.361328 17.507501 23.342387 17.541016 23.304688 C 17.574526 23.262788 17.589844 23.219618 17.589844 23.177734 L 17.589844 21.544922 C 17.589844 21.494662 17.570903 21.453441 17.533203 21.419922 C 17.495503 21.386412 17.455941 21.369141 17.414062 21.369141 L 15.787109 21.369141 C 15.780909 21.369141 15.775611 21.368552 15.769531 21.369141 z M 22.898438 21.544922 L 22.898438 23.177734 L 24.527344 23.177734 L 24.527344 21.544922 L 22.898438 21.544922 z M 15.964844 21.720703 L 17.238281 21.720703 L 17.238281 23.001953 L 15.964844 23.001953 L 15.964844 21.720703 z " /><path
       id="path4"
       style="baseline-shift:baseline;display:inline;overflow:visible;vector-effect:none;fill:#7ad383;stroke-linejoin:round;stroke-miterlimit:1.5;paint-order:markers fill stroke;enable-background:accumulate;stop-color:#000000;stop-opacity:1;opacity:1"
       inkscape:label="green"
       d="M 24.521484 23.181641 L 24.521484 24.818359 L 857.10547 24.818359 L 857.10547 23.181641 L 24.521484 23.181641 z " /><path
       id="path25"
       style="font-size:74.6667px;font-family:'FiraCode Nerd Font';-inkscape-font-specification:'FiraCode Nerd Font, Normal';text-align:center;letter-spacing:0px;text-anchor:middle;display:inline;fill:#7ad383;stroke-width:0.263177;stroke-linejoin:round;stroke-miterlimit:1.5;paint-order:markers fill stroke"
       d="m 21.308594,23.177985 v 1.604805 h 1.607193 v -1.604805 z" /><path
       id="path5"
       style="baseline-shift:baseline;display:inline;overflow:visible;vector-effect:none;fill:#25bfea;stroke-linejoin:round;stroke-miterlimit:1.5;paint-order:markers fill stroke;enable-background:accumulate;stop-color:#000000;stop-opacity:1;opacity:1"
       inkscape:label="cyan"
       d="M 24.521484 24.818359 L 24.521484 26.455078 L 857.10547 26.455078 L 857.10547 24.818359 L 24.521484 24.818359 z " /><path
       id="path26"
       style="font-size:74.6667px;font-family:'FiraCode Nerd Font';-inkscape-font-specification:'FiraCode Nerd Font, Normal';text-align:center;letter-spacing:0px;text-anchor:middle;display:inline;fill:#25bfea;stroke-width:0.268046;stroke-linejoin:round;stroke-miterlimit:1.5;paint-order:markers fill stroke"
       d="m 18.027287,24.599246 c -0.05256,0.0055 -0.0972,0.02909 -0.133775,0.07297 -0.04181,0.04598 -0.06081,0.09646 -0.06081,0.150802 v 1.632061 c 0,0.0627 0.02212,0.113873 0.0681,0.155666 0.04599,0.04181 0.09648,0.06323 0.150802,0.06323 h 1.622332 c 0.0627,0 0.116302,-0.02454 0.158099,-0.07054 0.04181,-0.04598 0.06323,-0.09403 0.06323,-0.148369 v -1.632062 c 0,-0.0627 -0.02454,-0.113873 -0.07054,-0.155665 -0.04599,-0.04599 -0.09646,-0.06811 -0.150802,-0.06811 h -1.622332 c -0.0079,0 -0.01681,-7.83e-4 -0.02433,0 z m 4.869432,0.223771 v 1.632061 h 1.624765 v -1.632061 z m -4.6335,0.221337 h 1.191818 v 1.184522 h -1.191818 z" /><path
       id="path6"
       style="baseline-shift:baseline;display:inline;overflow:visible;vector-effect:none;fill:#b180f5;stroke-linejoin:round;stroke-miterlimit:1.5;paint-order:markers fill stroke;enable-background:accumulate;stop-color:#000000;stop-opacity:1;opacity:1"
       inkscape:label="purple"
       d="M 24.521484 26.455078 L 24.521484 28.09375 L 857.10547 28.09375 L 857.10547 26.455078 L 24.521484 26.455078 z " /><path
       id="path27"
       style="font-size:74.6667px;font-family:'FiraCode Nerd Font';-inkscape-font-specification:'FiraCode Nerd Font, Normal';text-align:center;letter-spacing:0px;text-anchor:middle;display:inline;fill:#b180f5;stroke-width:0.268434;stroke-linejoin:round;stroke-miterlimit:1.5;paint-order:markers fill stroke"
       d="M 20.501953 26.308594 C 20.469893 26.312294 20.439713 26.328132 20.414062 26.357422 C 20.388952 26.390912 20.378906 26.423541 20.378906 26.457031 L 20.378906 28.091797 C 20.378906 28.133667 20.392575 28.16796 20.421875 28.197266 C 20.455365 28.226556 20.484362 28.242187 20.513672 28.242188 L 22.154297 28.242188 C 22.191967 28.242188 22.222947 28.224876 22.248047 28.191406 C 22.277337 28.157916 22.292969 28.125287 22.292969 28.091797 L 22.292969 26.457031 C 22.292969 26.415161 22.275688 26.382821 22.242188 26.353516 C 22.212898 26.324226 22.183597 26.308594 22.154297 26.308594 L 20.513672 26.308594 L 20.501953 26.308594 z M 20.666016 26.607422 L 22.001953 26.607422 L 22.001953 27.953125 L 20.666016 27.953125 L 20.666016 26.607422 z " /><path
       id="path7"
       style="baseline-shift:baseline;display:inline;overflow:visible;vector-effect:none;fill:#f06eb5;stroke-linejoin:round;stroke-miterlimit:1.5;paint-order:markers fill stroke;enable-background:accumulate;stop-color:#000000;stop-opacity:1;opacity:1"
       inkscape:label="pink"
       d="M 24.521484 28.091797 L 24.521484 29.730469 L 857.10547 29.730469 L 857.10547 28.091797 L 24.521484 28.091797 z " /><path
       id="path28"
       style="font-size:74.6667px;font-family:'FiraCode Nerd Font';-inkscape-font-specification:'FiraCode Nerd Font, Normal';text-align:center;letter-spacing:0px;text-anchor:middle;display:inline;fill:#f06eb5;stroke-width:0.269105;stroke-linejoin:round;stroke-miterlimit:1.5;paint-order:markers fill stroke"
       d="m 15.747744,27.917933 c -0.04268,0.0041 -0.08171,0.02312 -0.114772,0.05616 -0.03357,0.03776 -0.04883,0.07769 -0.04883,0.119651 v 1.63607 c 0,0.05035 0.01838,0.09095 0.05616,0.124537 0.04197,0.03776 0.08258,0.0586 0.124538,0.0586 h 1.631188 c 0.05035,0 0.09341,-0.02154 0.126979,-0.06349 0.03357,-0.03777 0.04883,-0.07768 0.04883,-0.119649 v -1.636071 c 0,-0.05036 -0.01838,-0.0934 -0.05616,-0.12698 -0.03776,-0.03357 -0.07768,-0.04883 -0.119649,-0.04883 h -1.631189 c -0.0062,0 -0.011,-5.91e-4 -0.01709,0 z m 7.142553,0.175817 v 1.63607 h 1.631187 v -1.63607 z m -6.9472,0.175816 h 1.277112 v 1.289322 h -1.277112 z" /><path
       id="path29"
       style="font-size:74.6667px;font-family:'FiraCode Nerd Font';-inkscape-font-specification:'FiraCode Nerd Font, Normal';text-align:center;letter-spacing:0px;text-anchor:middle;display:inline;fill:#f4c15d;stroke-width:0.267855;stroke-linejoin:round;stroke-miterlimit:1.5;paint-order:markers fill stroke"
       inkscape:label="text22"
       d="m 12.864765,22.541406 -0.002,0.002 h -0.002 c -0.0062,0.0024 -0.01326,0.007 -0.01953,0.01172 -0.0021,0.0015 -0.0074,0.0043 -0.0098,0.0059 l -0.002,0.002 -0.002,0.002 c -0.0024,0.0032 -0.0074,0.0086 -0.0098,0.01172 v 0.0039 h -0.002 v 0.002 c -4.13e-4,0.0021 -0.0016,0.0058 -0.002,0.0078 v 0.002 0.002 h -0.0039 v 0.002 0.0039 0.002 0.002 0.0039 h -0.002 v 0.002 0.002 c 2.5e-5,0.0013 0,0.005 0,0.0059 v 1.626953 c 0,0.0013 3.3e-5,0.0066 0,0.0078 3.92e-4,0.0039 0.0011,0.01197 0.002,0.01563 v 0.002 l 0.0039,0.002 h 0.002 v 0.002 0.0039 0.002 h 0.002 v 0.002 c 0.0026,0.0046 0.0062,0.01137 0.0098,0.01563 l 0.0039,0.002 0.002,0.002 c 0.0021,0.0016 0.0078,0.0061 0.0098,0.0078 l 0.002,0.002 c 0.0058,0.0035 0.01226,0.0059 0.01758,0.0078 h 0.002 0.002 c 0.0018,3.91e-4 0.0062,0.0014 0.0078,0.002 h 0.002 1.636718 c 0.0013,0 0.0066,1.66e-4 0.0078,0 h 0.002 0.002 v -0.002 h 0.002 c 0.0051,-8.81e-4 0.01301,-0.0025 0.01758,-0.0039 h 0.002 0.0039 l 0.002,-0.0039 h 0.002 v -0.002 l 0.002,-0.002 0.0039,-0.0039 0.002,-0.002 0.002,-0.002 v -0.002 l 0.002,-0.002 0.002,-0.002 v -0.002 c 10e-4,-0.002 0.0031,-0.0058 0.0039,-0.0078 v -0.002 -0.002 c 0.0026,-0.0095 0.0059,-0.02068 0.0059,-0.0332 v -1.628906 c 0,-0.0031 -8.1e-5,-0.0088 0,-0.01172 -1.4e-5,-7e-4 -2.2e-5,-0.003 0,-0.0039 v -0.002 -0.002 -0.002 c -7.46e-4,-0.0023 -0.0027,-0.0074 -0.0039,-0.0098 l -0.002,-0.002 v -0.002 -0.002 h -0.002 v -0.002 l -0.002,-0.002 v -0.002 -0.002 -0.002 -0.002 h -0.0039 v -0.002 c -0.0035,-0.0052 -0.009,-0.01197 -0.01367,-0.01563 l -0.0039,-0.002 h -0.002 v -0.002 h -0.002 -0.002 c -0.0078,-0.0031 -0.01689,-0.0059 -0.02734,-0.0059 h -1.634765 -0.0039 -0.002 -0.002 -0.002 -0.002 z m 0.08789,0.150391 h 1.484376 v 1.484375 h -1.484376 z" /><path
       id="path30"
       style="font-size:74.6667px;font-family:'FiraCode Nerd Font';-inkscape-font-specification:'FiraCode Nerd Font, Normal';text-align:center;letter-spacing:0px;text-anchor:middle;display:inline;fill:#25bfea;stroke-width:0.268434;stroke-linejoin:round;stroke-miterlimit:1.5;paint-order:markers fill stroke"
       d="M 15.460938 23.632812 C 15.428878 23.636512 15.398697 23.650398 15.373047 23.679688 C 15.347937 23.713178 15.335938 23.74776 15.335938 23.78125 L 15.335938 25.414062 C 15.335938 25.455932 15.349606 25.490225 15.378906 25.519531 C 15.412396 25.548821 15.443346 25.566406 15.472656 25.566406 L 17.111328 25.566406 C 17.148998 25.566406 17.181931 25.549095 17.207031 25.515625 C 17.236321 25.482135 17.25 25.447553 17.25 25.414062 L 17.25 23.78125 C 17.25 23.73938 17.232719 23.705086 17.199219 23.675781 C 17.169929 23.646491 17.140628 23.632812 17.111328 23.632812 L 15.472656 23.632812 L 15.460938 23.632812 z M 15.623047 23.931641 L 16.960938 23.931641 L 16.960938 25.275391 L 15.623047 25.275391 L 15.623047 23.931641 z " /><path
       id="path31"
       style="font-size:74.6667px;font-family:'FiraCode Nerd Font';-inkscape-font-specification:'FiraCode Nerd Font, Normal';text-align:center;letter-spacing:0px;text-anchor:middle;display:inline;fill:#b180f5;stroke-width:0.268046;stroke-linejoin:round;stroke-miterlimit:1.5;paint-order:markers fill stroke"
       d="M 13.054688 25.417969 C 13.002128 25.423469 12.95845 25.446354 12.921875 25.490234 C 12.880065 25.536214 12.859375 25.588236 12.859375 25.642578 L 12.859375 27.273438 C 12.859375 27.336137 12.881754 27.387894 12.927734 27.429688 C 12.973724 27.471498 13.023803 27.492187 13.078125 27.492188 L 14.701172 27.492188 C 14.763872 27.492188 14.817578 27.467875 14.859375 27.421875 C 14.901185 27.375895 14.921875 27.327777 14.921875 27.273438 L 14.921875 25.642578 C 14.921875 25.579878 14.897562 25.52812 14.851562 25.486328 C 14.805573 25.440338 14.755514 25.417969 14.701172 25.417969 L 13.078125 25.417969 C 13.070225 25.417969 13.062207 25.417186 13.054688 25.417969 z M 13.291016 25.863281 L 14.482422 25.863281 L 14.482422 27.046875 L 13.291016 27.046875 L 13.291016 25.863281 z " /><path
       id="path32"
       style="font-size:74.6667px;font-family:'FiraCode Nerd Font';-inkscape-font-specification:'FiraCode Nerd Font, Normal';text-align:center;letter-spacing:0px;text-anchor:middle;display:inline;fill:#f06eb5;stroke-width:0.267855;stroke-linejoin:round;stroke-miterlimit:1.5;paint-order:markers fill stroke"
       inkscape:label="text22"
       d="m 18.339365,27.027656 -0.002,0.002 h -0.002 c -0.0062,0.0024 -0.01326,0.007 -0.01953,0.01172 -0.0021,0.0015 -0.0074,0.0043 -0.0098,0.0059 l -0.002,0.002 -0.002,0.002 c -0.0024,0.0032 -0.0074,0.0086 -0.0098,0.01172 v 0.0039 h -0.002 v 0.002 c -4.13e-4,0.0021 -0.0016,0.0058 -0.002,0.0078 v 0.002 0.002 h -0.0039 v 0.002 0.0039 0.002 0.002 0.0039 h -0.002 v 0.002 0.002 c 2.5e-5,0.0013 0,0.005 0,0.0059 v 1.626953 c 0,0.0013 3.3e-5,0.0066 0,0.0078 3.92e-4,0.0039 0.0011,0.01197 0.002,0.01563 v 0.002 l 0.0039,0.002 h 0.002 v 0.002 0.0039 0.002 h 0.002 v 0.002 c 0.0026,0.0046 0.0062,0.01137 0.0098,0.01563 l 0.0039,0.002 0.002,0.002 c 0.0021,0.0016 0.0078,0.0061 0.0098,0.0078 l 0.002,0.002 c 0.0058,0.0035 0.01226,0.0059 0.01758,0.0078 h 0.002 0.002 c 0.0018,3.91e-4 0.0062,0.0014 0.0078,0.002 h 0.002 1.636718 c 0.0013,0 0.0066,1.66e-4 0.0078,0 h 0.002 0.002 v -0.002 h 0.002 c 0.0051,-8.81e-4 0.01301,-0.0025 0.01758,-0.0039 h 0.002 0.0039 l 0.002,-0.0039 h 0.002 v -0.002 l 0.002,-0.002 0.0039,-0.0039 0.002,-0.002 0.002,-0.002 v -0.002 l 0.002,-0.002 0.002,-0.002 v -0.002 c 0.001,-0.002 0.0031,-0.0058 0.0039,-0.0078 v -0.002 -0.002 c 0.0026,-0.0095 0.0059,-0.02068 0.0059,-0.0332 v -1.628906 c 0,-0.0031 -8.1e-5,-0.0088 0,-0.01172 -1.4e-5,-7e-4 -2.2e-5,-0.003 0,-0.0039 v -0.002 -0.002 -0.002 c -7.46e-4,-0.0023 -0.0027,-0.0074 -0.0039,-0.0098 l -0.002,-0.002 v -0.002 -0.002 h -0.002 v -0.002 l -0.002,-0.002 v -0.002 -0.002 -0.002 -0.002 h -0.0039 v -0.002 c -0.0035,-0.0052 -0.009,-0.01197 -0.01367,-0.01563 l -0.0039,-0.002 h -0.002 v -0.002 h -0.002 -0.002 c -0.0078,-0.0031 -0.01689,-0.0059 -0.02734,-0.0059 h -1.634765 -0.0039 -0.002 -0.002 -0.002 -0.002 z m 0.08789,0.150391 h 1.484376 v 1.484375 h -1.484376 z" /><path
       id="path33"
       style="font-size:74.6667px;font-family:'FiraCode Nerd Font';-inkscape-font-specification:'FiraCode Nerd Font, Normal';text-align:center;letter-spacing:0px;text-anchor:middle;display:inline;fill:#f06eb5;stroke-width:0.268434;stroke-linejoin:round;stroke-miterlimit:1.5;paint-order:markers fill stroke"
       d="m 10.237639,27.588603 c -0.03206,0.0037 -0.06224,0.01759 -0.08789,0.04688 -0.02511,0.03349 -0.03711,0.06807 -0.03711,0.101562 v 1.632812 c 0,0.04187 0.01367,0.07616 0.04297,0.105469 0.03349,0.02929 0.06444,0.04687 0.09375,0.04687 h 1.638672 c 0.03767,0 0.0706,-0.01731 0.0957,-0.05078 0.02929,-0.03349 0.04297,-0.06807 0.04297,-0.101563 v -1.632812 c 0,-0.04187 -0.01728,-0.07616 -0.05078,-0.105469 -0.02929,-0.02929 -0.05859,-0.04297 -0.08789,-0.04297 h -1.638672 z m 0.162109,0.298829 h 1.337891 v 1.34375 h -1.337891 z" /><path
       id="path34"
       style="font-size:74.6667px;font-family:'FiraCode Nerd Font';-inkscape-font-specification:'FiraCode Nerd Font, Normal';text-align:center;letter-spacing:0px;text-anchor:middle;display:inline;fill:#b180f5;stroke-width:0.268434;stroke-linejoin:round;stroke-miterlimit:1.5;paint-order:markers fill stroke"
       d="m 9.3740538,23.431418 c -0.03206,0.0037 -0.062241,0.01759 -0.087891,0.04688 -0.02511,0.03349 -0.037109,0.06807 -0.037109,0.101562 v 1.632812 c 0,0.04187 0.013668,0.07616 0.042968,0.105469 0.03349,0.02929 0.06444,0.04687 0.09375,0.04687 h 1.6386722 c 0.03767,0 0.0706,-0.01731 0.0957,-0.05078 0.02929,-0.03349 0.04297,-0.06807 0.04297,-0.101563 v -1.632812 c 0,-0.04187 -0.01728,-0.07616 -0.05078,-0.105469 -0.02929,-0.02929 -0.05859,-0.04297 -0.08789,-0.04297 H 9.3857718 Z m 0.162109,0.298829 h 1.3378912 v 1.34375 H 9.5361628 Z" /><path
       id="path35"
       style="font-size:74.6667px;font-family:'FiraCode Nerd Font';-inkscape-font-specification:'FiraCode Nerd Font, Normal';text-align:center;letter-spacing:0px;text-anchor:middle;display:inline;fill:#f78c4d;stroke-width:0.268434;stroke-linejoin:round;stroke-miterlimit:1.5;paint-order:markers fill stroke"
       d="m 13.546878,19.088175 c -0.03206,0.0037 -0.06224,0.01759 -0.08789,0.04688 -0.02511,0.03349 -0.03711,0.06807 -0.03711,0.101562 v 1.632812 c 0,0.04187 0.01367,0.07616 0.04297,0.105469 0.03349,0.02929 0.06444,0.04687 0.09375,0.04687 h 1.638672 c 0.03767,0 0.0706,-0.01731 0.0957,-0.05078 0.02929,-0.03349 0.04297,-0.06807 0.04297,-0.101563 v -1.632812 c 0,-0.04187 -0.01728,-0.07616 -0.05078,-0.105469 -0.02929,-0.02929 -0.05859,-0.04297 -0.08789,-0.04297 h -1.638672 z m 0.162109,0.298829 h 1.337891 v 1.34375 h -1.337891 z" /><path
       id="path36"
       style="font-size:74.6667px;font-family:'FiraCode Nerd Font';-inkscape-font-specification:'FiraCode Nerd Font, Normal';text-align:center;letter-spacing:0px;text-anchor:middle;display:inline;fill:#e24d6a;stroke-width:0.268046;stroke-linejoin:round;stroke-miterlimit:1.5;paint-order:markers fill stroke"
       d="m 10.728579,17.747919 c -0.05256,0.0055 -0.09624,0.02839 -0.132813,0.07227 -0.04181,0.04598 -0.0625,0.098 -0.0625,0.152344 v 1.63086 c 0,0.0627 0.02238,0.114456 0.06836,0.15625 0.04599,0.04181 0.09607,0.0625 0.150391,0.0625 h 1.623047 c 0.0627,0 0.116406,-0.02431 0.158203,-0.07031 0.04181,-0.04598 0.0625,-0.0941 0.0625,-0.148437 v -1.63086 c 0,-0.0627 -0.02431,-0.114458 -0.07031,-0.15625 -0.04599,-0.04599 -0.09605,-0.06836 -0.15039,-0.06836 h -1.623047 c -0.0079,0 -0.01592,-7.83e-4 -0.02344,0 z m 0.236328,0.445312 h 1.191406 v 1.183594 h -1.191406 z" /><path
       id="path37"
       style="font-size:74.6667px;font-family:'FiraCode Nerd Font';-inkscape-font-specification:'FiraCode Nerd Font, Normal';text-align:center;letter-spacing:0px;text-anchor:middle;display:inline;fill:#f4c15d;stroke-width:0.267855;stroke-linejoin:round;stroke-miterlimit:1.5;paint-order:markers fill stroke"
       inkscape:label="text22"
       d="m 19.236328,22.214713 -0.002,0.002 h -0.002 c -0.0062,0.0024 -0.01326,0.007 -0.01953,0.01172 -0.0021,0.0015 -0.0074,0.0043 -0.0098,0.0059 l -0.002,0.002 -0.002,0.002 c -0.0024,0.0032 -0.0074,0.0086 -0.0098,0.01172 v 0.0039 h -0.002 v 0.002 c -4.13e-4,0.0021 -0.0016,0.0058 -0.002,0.0078 v 0.002 0.002 h -0.0039 v 0.002 0.0039 0.002 0.002 0.0039 h -0.002 v 0.002 0.002 c 2.5e-5,0.0013 0,0.005 0,0.0059 v 1.626953 c 0,0.0013 3.3e-5,0.0066 0,0.0078 3.92e-4,0.0039 0.0011,0.01197 0.002,0.01563 v 0.002 l 0.0039,0.002 h 0.002 v 0.002 0.0039 0.002 h 0.002 v 0.002 c 0.0026,0.0046 0.0062,0.01137 0.0098,0.01563 l 0.0039,0.002 0.002,0.002 c 0.0021,0.0016 0.0078,0.0061 0.0098,0.0078 l 0.002,0.002 c 0.0058,0.0035 0.01226,0.0059 0.01758,0.0078 h 0.002 0.002 c 0.0018,3.91e-4 0.0062,0.0014 0.0078,0.002 h 0.002 1.636718 c 0.0013,0 0.0066,1.66e-4 0.0078,0 h 0.002 0.002 v -0.002 h 0.002 c 0.0051,-8.81e-4 0.01301,-0.0025 0.01758,-0.0039 h 0.002 0.0039 l 0.002,-0.0039 h 0.002 v -0.002 l 0.002,-0.002 0.0039,-0.0039 0.002,-0.002 0.002,-0.002 v -0.002 l 0.002,-0.002 0.002,-0.002 v -0.002 c 10e-4,-0.002 0.0031,-0.0058 0.0039,-0.0078 v -0.002 -0.002 c 0.0026,-0.0095 0.0059,-0.02068 0.0059,-0.0332 V 22.29136 c 0,-0.0031 -8.1e-5,-0.0088 0,-0.01172 -1.4e-5,-7e-4 -2.2e-5,-0.003 0,-0.0039 v -0.002 -0.002 -0.002 c -7.46e-4,-0.0023 -0.0027,-0.0074 -0.0039,-0.0098 l -0.002,-0.002 v -0.002 -0.002 h -0.002 v -0.002 l -0.002,-0.002 v -0.002 -0.002 -0.002 -0.002 h -0.0039 v -0.002 c -0.0035,-0.0052 -0.009,-0.01197 -0.01367,-0.01563 l -0.0039,-0.002 h -0.002 v -0.002 h -0.002 -0.002 c -0.0078,-0.0031 -0.01689,-0.0059 -0.02734,-0.0059 h -1.634765 -0.0039 -0.002 -0.002 -0.002 -0.002 z m 0.08789,0.150391 h 1.484377 v 1.484375 h -1.484377 z" /><path
       id="path38"
       style="font-size:74.6667px;font-family:'FiraCode Nerd Font';-inkscape-font-specification:'FiraCode Nerd Font, Normal';text-align:center;letter-spacing:0px;text-anchor:middle;display:inline;fill:#f78c4d;stroke-width:0.267855;stroke-linejoin:round;stroke-miterlimit:1.5;paint-order:markers fill stroke"
       inkscape:label="text22"
       d="m 6.531634,20.584777 -0.002,0.002 h -0.002 c -0.0062,0.0024 -0.01326,0.007 -0.01953,0.01172 -0.0021,0.0015 -0.0074,0.0043 -0.0098,0.0059 l -0.002,0.002 -0.002,0.002 c -0.0024,0.0032 -0.0074,0.0086 -0.0098,0.01172 v 0.0039 h -0.002 v 0.002 c -4.13e-4,0.0021 -0.0016,0.0058 -0.002,0.0078 v 0.002 0.002 h -0.0039 v 0.002 0.0039 0.002 0.002 0.0039 h -0.002 v 0.002 0.002 c 2.5e-5,0.0013 0,0.005 0,0.0059 v 1.626953 c 0,0.0013 3.3e-5,0.0066 0,0.0078 3.92e-4,0.0039 0.0011,0.01197 0.002,0.01563 v 0.002 l 0.0039,0.002 h 0.002 v 0.002 0.0039 0.002 h 0.002 v 0.002 c 0.0026,0.0046 0.0062,0.01137 0.0098,0.01563 l 0.0039,0.002 0.002,0.002 c 0.0021,0.0016 0.0078,0.0061 0.0098,0.0078 l 0.002,0.002 c 0.0058,0.0035 0.01226,0.0059 0.01758,0.0078 h 0.002 0.002 c 0.0018,3.91e-4 0.0062,0.0014 0.0078,0.002 h 0.002 1.636718 c 0.0013,0 0.0066,1.66e-4 0.0078,0 h 0.002 0.002 v -0.002 h 0.002 c 0.0051,-8.81e-4 0.01301,-0.0025 0.01758,-0.0039 h 0.002 0.0039 l 0.002,-0.0039 h 0.002 v -0.002 l 0.002,-0.002 0.0039,-0.0039 0.002,-0.002 0.002,-0.002 v -0.002 l 0.002,-0.002 0.002,-0.002 v -0.002 c 10e-4,-0.002 0.0031,-0.0058 0.0039,-0.0078 v -0.002 -0.002 c 0.0026,-0.0095 0.0059,-0.02068 0.0059,-0.0332 v -1.628906 c 0,-0.0031 -8.1e-5,-0.0088 0,-0.01172 -1.4e-5,-7e-4 -2.2e-5,-0.003 0,-0.0039 v -0.002 -0.002 -0.002 c -7.46e-4,-0.0023 -0.0027,-0.0074 -0.0039,-0.0098 l -0.002,-0.002 v -0.002 -0.002 h -0.002 v -0.002 l -0.002,-0.002 v -0.002 -0.002 -0.002 -0.002 h -0.0039 v -0.002 c -0.0035,-0.0052 -0.009,-0.01197 -0.01367,-0.01563 l -0.0039,-0.002 h -0.002 v -0.002 h -0.002 -0.002 c -0.0078,-0.0031 -0.01689,-0.0059 -0.02734,-0.0059 h -1.634765 -0.0039 -0.002 -0.002 -0.002 -0.002 z m 0.08789,0.150391 H 8.1039 v 1.484375 H 6.619524 Z" /></g><g
     id="g1278"
     style="display:inline"
     transform="matrix(0,0.26454297,-0.26454297,0,947.46055,-125.47194)"
     inkscape:label="rocket"
     inkscape:export-filename="../rocket_line.png"
     inkscape:export-xdpi="96"
     inkscape:export-ydpi="96">
			
			<path
   style="fill:#261931"
   d="m 655.74,317.85 c 0,0 -0.845,-2.951 -2.705,-7.485 -1.859,-4.534 -7.268,-7.17 -7.268,-7.17 0,0 -29.242,-19.083 -35.835,-22.563 -6.594,-3.48 -9.974,-11.283 -9.974,-11.283 l -14.03,-49.448 h -20.859 -0.101 -20.859 l -14.03,49.448 c 0,0 -3.381,7.802 -9.974,11.283 -6.593,3.479 -35.836,22.563 -35.836,22.563 0,0 -5.409,2.636 -7.268,7.17 -1.859,4.534 -2.704,7.485 -2.704,7.485 v 2.848 h 1.859 l -1.859,2.847 v 2.636 l 90.672,7.162 v 0.008 l 0.049,-0.003 0.052,0.003 v -0.008 l 90.672,-7.162 v -2.636 l -1.86,-2.847 h 1.86 v -2.848 z"
   id="path1266" />
			<polygon
   style="fill:#4a3b52"
   points="543.355,347.899 562.87,347.899 562.87,328.078 534.473,328.604 534.473,341.046 541.74,341.046 "
   id="polygon1266" />
			<polygon
   style="fill:#6d5a74"
   points="565.068,317.613 565.068,333.349 474.296,326.18 474.296,323.544 476.155,320.697 474.296,320.697 474.296,317.85 476.07,317.613 "
   id="polygon1267" />
			<path
   style="fill:#9b91a3"
   d="m 543.374,236.244 -9.475,36.586 c 0,0 -4.16,6.747 -7.034,8.54 -2.872,1.792 -44.964,27.94 -44.964,27.94 l -4.225,8.303 h 74.376 l -2.833,-88.222 z"
   id="path1267" />
			<polygon
   style="fill:#261931"
   points="586.678,347.899 567.164,347.899 567.164,328.078 595.563,328.604 595.563,341.046 588.293,341.046 "
   id="polygon1268" />
			<polygon
   style="fill:#4a3b52"
   points="564.968,317.613 564.968,333.349 655.739,326.18 655.739,323.544 653.88,320.697 655.739,320.697 655.739,317.85 653.965,317.613 "
   id="polygon1269" />
			<path
   style="fill:#6d5a74"
   d="m 586.662,236.244 9.475,36.586 c 0,0 4.159,6.747 7.031,8.54 2.874,1.792 44.965,27.94 44.965,27.94 l 4.227,8.303 h -74.376 l 2.83,-88.222 z"
   id="path1269" />
			<path
   style="fill:#4a3b52"
   d="m 608.647,284.776 c -2.896,-1.8 -4.922,-3.06 -5.479,-3.406 -2.872,-1.792 -7.031,-8.54 -7.031,-8.54 l -9.475,-36.586 -5.849,-6.854 -2.83,88.222 h 30.663 v -32.836 z"
   id="path1270" />
			<path
   style="fill:#f2ecee"
   d="m 586.604,308.783 c 0,0 0.168,-78.865 0,-87.828 -0.17,-8.962 -4.394,-18.979 -4.394,-18.979 -7.767,-22.605 -16.46,-22.607 -17.192,-22.567 -0.729,-0.04 -9.424,-0.038 -17.189,22.567 0,0 -4.228,10.017 -4.396,18.979 -0.17,8.963 0,87.828 0,87.828 -8.62,0 -8.959,11.386 -8.959,11.386 v 13.18 h 24.679 5.816 0.101 5.815 24.68 v -13.18 c -0.002,0 -0.34,-11.386 -8.961,-11.386 z"
   id="path1271" />
			<path
   style="fill:#b2a8b6"
   d="m 578.708,193.314 c -6.136,-12.81 -12.03,-13.848 -13.426,-13.903 v 13.903 z"
   id="path1272" />
			<path
   style="fill:#cbd2d7"
   d="m 586.604,308.783 c 0,0 0,-0.015 0,-0.02 h -21.321 v 24.586 h 30.28 v -13.18 c 0,0 -0.338,-11.386 -8.959,-11.386 z"
   id="path1273" />
			<path
   style="fill:#b2a8b6"
   d="m 586.61,305.036 c 0.031,-15.755 0.14,-76.294 -0.007,-84.081 -0.17,-8.962 -4.394,-18.979 -4.394,-18.979 -0.614,-1.786 -1.234,-3.42 -1.854,-4.936 h -15.072 v 107.995 h 21.327 z"
   id="path1274" />
			<path
   style="fill:#9b91a3"
   d="m 586.604,308.783 c 0,0 0,-0.015 0,-0.02 h -5.977 c 0.953,0.461 1.745,1.016 2.396,1.629 l 0.029,0.017 c 0.063,0.041 0.127,0.078 0.189,0.119 l 0.021,0.014 c 1.177,0.734 2.039,1.581 2.624,2.5 0.806,0.982 1.285,2.146 1.285,3.503 v 16.805 h 8.392 v -13.18 c 0,-0.001 -0.338,-11.387 -8.959,-11.387 z"
   id="path1275" />
			<path
   style="fill:#9b91a3"
   d="m 586.604,220.956 c -0.17,-8.962 -4.394,-18.979 -4.394,-18.979 -0.614,-1.786 -1.234,-3.42 -1.854,-4.936 h -4.137 v 107.995 h 10.393 c 0.03,-15.755 0.138,-76.294 -0.008,-84.08 z"
   id="path1276" />
			<polygon
   style="fill:#6d5a74"
   points="564.968,307.253 558.475,307.253 562.28,354.7 564.968,354.7 565.068,354.7 567.756,354.7 571.559,307.253 565.068,307.253 "
   id="polygon1276" />
			<polygon
   style="fill:#261931"
   points="554.801,207.697 565.017,206.989 575.235,207.697 577.011,211.255 580.814,211.255 578.66,205.799 565.068,202.032 565.068,202.003 565.017,202.018 564.968,202.003 564.968,202.032 551.376,205.799 549.22,211.255 553.025,211.255 "
   id="polygon1277" />
			<polygon
   style="fill:#261931"
   points="564.968,195.677 565.068,195.677 579.785,195.677 579.365,194.729 569.911,194.729 569.911,191.013 565.068,191.013 564.968,191.013 560.124,191.013 560.124,194.729 550.668,194.729 550.25,195.677 "
   id="polygon1278" />
		</g></svg>
