<?xml version="1.0" encoding="UTF-8" standalone="no"?>
<!-- Created with Inkscape (http://www.inkscape.org/) -->

<svg
   width="900"
   height="48"
   viewBox="0 0 900 48"
   version="1.1"
   id="svg1"
   xml:space="preserve"
   inkscape:version="1.4.2 (ebf0e94, 2025-05-08)"
   sodipodi:docname="rocket_line.svg"
   xmlns:inkscape="http://www.inkscape.org/namespaces/inkscape"
   xmlns:sodipodi="http://sodipodi.sourceforge.net/DTD/sodipodi-0.dtd"
   xmlns="http://www.w3.org/2000/svg"
   xmlns:svg="http://www.w3.org/2000/svg"><sodipodi:namedview
     id="namedview1"
     pagecolor="#ffffff"
     bordercolor="#000000"
     borderopacity="0.25"
     inkscape:showpageshadow="2"
     inkscape:pageopacity="0.0"
     inkscape:pagecheckerboard="0"
     inkscape:deskcolor="#d1d1d1"
     inkscape:document-units="px"
     showguides="false"
     inkscape:zoom="0.78870606"
     inkscape:cx="471.6586"
     inkscape:cy="239.633"
     inkscape:window-width="1898"
     inkscape:window-height="1010"
     inkscape:window-x="7"
     inkscape:window-y="31"
     inkscape:window-maximized="1"
     inkscape:current-layer="layer4" /><defs
     id="defs1" /><g
     inkscape:groupmode="layer"
     id="layer4"
     inkscape:label="lines"
     style="fill:#e24d6a"><path
       id="path22"
       style="fill:#e24d6a;stroke:none;stroke-width:1.637;stroke-linecap:butt;stroke-linejoin:round;stroke-miterlimit:1.5;stroke-dasharray:none;paint-order:markers fill stroke"
       d="M 14.064453 0 L 14.064453 11.03125 L 14.0625 11.03125 C 14.0625 13.382216 14.979635 15.638342 16.617188 17.304688 C 16.670033 17.358462 16.723287 17.410649 16.777344 17.462891 L 16.349609 17.814453 L 17.484375 19.326172 L 24.263672 20.958984 L 24.488281 19.908203 L 857.10547 19.908203 L 857.10547 18.271484 L 22.802734 18.271484 L 22.802734 18.269531 C 20.922951 18.269531 19.120383 17.511012 17.787109 16.154297 C 16.453836 14.797581 15.703125 12.955537 15.703125 11.03125 L 15.701172 11.03125 L 15.701172 0 L 14.064453 0 z "
       inkscape:label="red" /><path
       id="path2"
       style="baseline-shift:baseline;display:inline;overflow:visible;vector-effect:none;fill:#f78c4d;stroke-linejoin:round;stroke-miterlimit:1.5;paint-order:markers fill stroke;enable-background:accumulate;stop-color:#000000;stop-opacity:1;opacity:1"
       d="M 12.443359 0 L 12.443359 11.039062 L 12.449219 11.039062 C 12.449219 13.820915 13.537576 16.490211 15.476562 18.460938 C 17.390726 20.406434 19.9821 21.514918 22.691406 21.542969 L 22.691406 21.544922 L 857.10547 21.544922 L 857.10547 19.908203 L 22.691406 19.908203 L 22.691406 19.917969 C 20.419449 19.890071 18.247074 18.960966 16.634766 17.322266 C 14.997524 15.658224 14.074219 13.397548 14.074219 11.039062 L 14.080078 11.039062 L 14.080078 0 L 12.443359 0 z "
       inkscape:label="oirange" /><path
       id="path3"
       style="baseline-shift:baseline;display:inline;overflow:visible;vector-effect:none;fill:#f4c15d;stroke-linejoin:round;stroke-miterlimit:1.5;paint-order:markers fill stroke;enable-background:accumulate;stop-color:#000000;stop-opacity:1;opacity:1"
       d="M 10.810547 0 L 10.810547 11.039062 L 10.806641 11.039062 C 10.806641 14.256373 12.06567 17.342945 14.3125 19.621094 C 16.534955 21.874527 19.546695 23.154152 22.691406 23.181641 C 22.725896 23.181942 22.760401 23.181641 22.794922 23.181641 L 857.10547 23.181641 L 857.10547 21.544922 L 22.794922 21.544922 L 22.794922 21.537109 C 20.054801 21.537109 17.425166 20.43464 15.484375 18.466797 C 13.543584 16.498954 12.451172 13.826492 12.451172 11.039062 L 12.447266 11.039062 L 12.447266 0 L 10.810547 0 z "
       inkscape:label="yellow" /><path
       id="path4"
       style="baseline-shift:baseline;display:inline;overflow:visible;vector-effect:none;fill:#7ad383;stroke-linejoin:round;stroke-miterlimit:1.5;paint-order:markers fill stroke;enable-background:accumulate;stop-color:#000000;stop-opacity:1;opacity:1"
       d="M 9.1757812 0 L 9.1757812 11.048828 L 9.1777344 11.048828 C 9.1777344 14.697531 10.611984 18.198892 13.167969 20.78125 C 15.695425 23.334785 19.11708 24.784377 22.691406 24.816406 L 22.691406 24.818359 L 857.10547 24.818359 L 857.10547 23.181641 L 22.691406 23.181641 L 22.691406 23.185547 C 19.553795 23.153567 16.551477 21.879105 14.328125 19.632812 C 12.076186 17.357639 10.808594 14.269713 10.808594 11.048828 L 10.8125 11.048828 L 10.8125 0 L 9.1757812 0 z "
       inkscape:label="green" /><path
       id="path5"
       style="baseline-shift:baseline;display:inline;overflow:visible;vector-effect:none;fill:#25bfea;stroke-linejoin:round;stroke-miterlimit:1.5;paint-order:markers fill stroke;enable-background:accumulate;stop-color:#000000;stop-opacity:1;opacity:1"
       d="M 7.5527344 0 L 7.5527344 11.035156 L 7.5546875 11.035156 C 7.5546875 15.120603 9.1579585 19.040117 12.015625 21.931641 C 14.847987 24.797559 18.684985 26.420704 22.691406 26.449219 L 22.691406 26.455078 L 857.10547 26.455078 L 857.10547 24.818359 L 22.798828 24.818359 L 22.798828 24.816406 C 19.190971 24.816406 15.731598 23.367324 13.177734 20.783203 C 10.623871 18.199082 9.1875 14.693439 9.1875 11.035156 L 9.1894531 11.035156 L 9.1894531 0 L 7.5527344 0 z "
       inkscape:label="cyan" /><path
       id="path6"
       style="baseline-shift:baseline;display:inline;overflow:visible;vector-effect:none;fill:#b180f5;stroke-linejoin:round;stroke-miterlimit:1.5;paint-order:markers fill stroke;enable-background:accumulate;stop-color:#000000;stop-opacity:1;opacity:1"
       d="M 5.9414062 0 L 5.9414062 11.033203 L 5.9472656 11.033203 C 5.9472656 15.55223 7.7238251 19.886055 10.886719 23.083984 C 14.019701 26.251672 18.260687 28.048342 22.691406 28.082031 L 22.691406 28.09375 L 857.10547 28.09375 L 857.10547 26.455078 L 22.818359 26.455078 C 18.777142 26.455078 14.901124 24.833197 12.041016 21.941406 C 9.1809065 19.049616 7.5742189 15.126341 7.5742188 11.033203 L 7.578125 11.033203 L 7.578125 0 L 5.9414062 0 z "
       inkscape:label="purple" /><path
       id="path7"
       style="baseline-shift:baseline;display:inline;overflow:visible;vector-effect:none;fill:#f06eb5;stroke-linejoin:round;stroke-miterlimit:1.5;paint-order:markers fill stroke;enable-background:accumulate;stop-color:#000000;stop-opacity:1;opacity:1"
       d="M 4.3300781 0 L 4.3300781 11.033203 C 4.3300781 15.989398 6.2981755 20.743488 9.8027344 24.248047 C 13.230342 27.675655 17.853211 29.634423 22.691406 29.71875 L 22.691406 29.730469 L 857.10547 29.730469 L 857.10547 28.091797 L 23.017578 28.091797 L 23.017578 28.083984 C 18.494914 28.083984 14.158943 26.28785 10.960938 23.089844 C 7.76293 19.891837 5.9667969 15.555867 5.9667969 11.033203 L 5.9667969 0 L 4.3300781 0 z "
       inkscape:label="pink" /></g><g
     id="g1278"
     style="display:inline"
     transform="matrix(0,0.26454297,-0.26454297,0,947.46055,-125.47194)"
     inkscape:label="rocket"
     sodipodi:insensitive="true">
			
			<path
   style="fill:#261931"
   d="m 655.74,317.85 c 0,0 -0.845,-2.951 -2.705,-7.485 -1.859,-4.534 -7.268,-7.17 -7.268,-7.17 0,0 -29.242,-19.083 -35.835,-22.563 -6.594,-3.48 -9.974,-11.283 -9.974,-11.283 l -14.03,-49.448 h -20.859 -0.101 -20.859 l -14.03,49.448 c 0,0 -3.381,7.802 -9.974,11.283 -6.593,3.479 -35.836,22.563 -35.836,22.563 0,0 -5.409,2.636 -7.268,7.17 -1.859,4.534 -2.704,7.485 -2.704,7.485 v 2.848 h 1.859 l -1.859,2.847 v 2.636 l 90.672,7.162 v 0.008 l 0.049,-0.003 0.052,0.003 v -0.008 l 90.672,-7.162 v -2.636 l -1.86,-2.847 h 1.86 v -2.848 z"
   id="path1266" />
			<polygon
   style="fill:#4a3b52"
   points="541.74,341.046 543.355,347.899 562.87,347.899 562.87,328.078 534.473,328.604 534.473,341.046 "
   id="polygon1266" />
			<polygon
   style="fill:#6d5a74"
   points="476.07,317.613 565.068,317.613 565.068,333.349 474.296,326.18 474.296,323.544 476.155,320.697 474.296,320.697 474.296,317.85 "
   id="polygon1267" />
			<path
   style="fill:#9b91a3"
   d="m 543.374,236.244 -9.475,36.586 c 0,0 -4.16,6.747 -7.034,8.54 -2.872,1.792 -44.964,27.94 -44.964,27.94 l -4.225,8.303 h 74.376 l -2.833,-88.222 z"
   id="path1267" />
			<polygon
   style="fill:#261931"
   points="588.293,341.046 586.678,347.899 567.164,347.899 567.164,328.078 595.563,328.604 595.563,341.046 "
   id="polygon1268" />
			<polygon
   style="fill:#4a3b52"
   points="653.965,317.613 564.968,317.613 564.968,333.349 655.739,326.18 655.739,323.544 653.88,320.697 655.739,320.697 655.739,317.85 "
   id="polygon1269" />
			<path
   style="fill:#6d5a74"
   d="m 586.662,236.244 9.475,36.586 c 0,0 4.159,6.747 7.031,8.54 2.874,1.792 44.965,27.94 44.965,27.94 l 4.227,8.303 h -74.376 l 2.83,-88.222 z"
   id="path1269" />
			<path
   style="fill:#4a3b52"
   d="m 608.647,284.776 c -2.896,-1.8 -4.922,-3.06 -5.479,-3.406 -2.872,-1.792 -7.031,-8.54 -7.031,-8.54 l -9.475,-36.586 -5.849,-6.854 -2.83,88.222 h 30.663 v -32.836 z"
   id="path1270" />
			<path
   style="fill:#f2ecee"
   d="m 586.604,308.783 c 0,0 0.168,-78.865 0,-87.828 -0.17,-8.962 -4.394,-18.979 -4.394,-18.979 -7.767,-22.605 -16.46,-22.607 -17.192,-22.567 -0.729,-0.04 -9.424,-0.038 -17.189,22.567 0,0 -4.228,10.017 -4.396,18.979 -0.17,8.963 0,87.828 0,87.828 -8.62,0 -8.959,11.386 -8.959,11.386 v 13.18 h 24.679 5.816 0.101 5.815 24.68 v -13.18 c -0.002,0 -0.34,-11.386 -8.961,-11.386 z"
   id="path1271" />
			<path
   style="fill:#b2a8b6"
   d="m 578.708,193.314 c -6.136,-12.81 -12.03,-13.848 -13.426,-13.903 v 13.903 z"
   id="path1272" />
			<path
   style="fill:#cbd2d7"
   d="m 586.604,308.783 c 0,0 0,-0.015 0,-0.02 h -21.321 v 24.586 h 30.28 v -13.18 c 0,0 -0.338,-11.386 -8.959,-11.386 z"
   id="path1273" />
			<path
   style="fill:#b2a8b6"
   d="m 586.61,305.036 c 0.031,-15.755 0.14,-76.294 -0.007,-84.081 -0.17,-8.962 -4.394,-18.979 -4.394,-18.979 -0.614,-1.786 -1.234,-3.42 -1.854,-4.936 h -15.072 v 107.995 h 21.327 z"
   id="path1274" />
			<path
   style="fill:#9b91a3"
   d="m 586.604,308.783 c 0,0 0,-0.015 0,-0.02 h -5.977 c 0.953,0.461 1.745,1.016 2.396,1.629 l 0.029,0.017 c 0.063,0.041 0.127,0.078 0.189,0.119 l 0.021,0.014 c 1.177,0.734 2.039,1.581 2.624,2.5 0.806,0.982 1.285,2.146 1.285,3.503 v 16.805 h 8.392 v -13.18 c 0,-0.001 -0.338,-11.387 -8.959,-11.387 z"
   id="path1275" />
			<path
   style="fill:#9b91a3"
   d="m 586.604,220.956 c -0.17,-8.962 -4.394,-18.979 -4.394,-18.979 -0.614,-1.786 -1.234,-3.42 -1.854,-4.936 h -4.137 v 107.995 h 10.393 c 0.03,-15.755 0.138,-76.294 -0.008,-84.08 z"
   id="path1276" />
			<polygon
   style="fill:#6d5a74"
   points="565.068,307.253 564.968,307.253 558.475,307.253 562.28,354.7 564.968,354.7 565.068,354.7 567.756,354.7 571.559,307.253 "
   id="polygon1276" />
			<polygon
   style="fill:#261931"
   points="553.025,211.255 554.801,207.697 565.017,206.989 575.235,207.697 577.011,211.255 580.814,211.255 578.66,205.799 565.068,202.032 565.068,202.003 565.017,202.018 564.968,202.003 564.968,202.032 551.376,205.799 549.22,211.255 "
   id="polygon1277" />
			<polygon
   style="fill:#261931"
   points="550.25,195.677 564.968,195.677 565.068,195.677 579.785,195.677 579.365,194.729 569.911,194.729 569.911,191.013 565.068,191.013 564.968,191.013 560.124,191.013 560.124,194.729 550.668,194.729 "
   id="polygon1278" />
		</g></svg>
